Normalized EMG Linear Envelopes
nRows=54
nColumns=17

endheader
time	        VM	        VL	        RF	       GRA	        TA	   ADDLONG	   SEMIMEM	      BFLH	        GM	        GL	       TFL	   GLUTMAX	   GLUTMED	      PIRI	    OBTINT	        QF	
2.014	  0.518358	  0.506583	  0.084050	  0.288361	  0.097379	  0.098514	  0.284193	  0.367399	  0.794245	  0.699646	  0.069745	  0.227450	  0.288273	  0.647566	  1.172302	  1.174658	
2.0145	  0.512513	  0.502104	  0.083527	  0.288767	  0.096731	  0.099423	  0.282246	  0.363325	  0.794651	  0.698871	  0.069427	  0.223959	  0.285779	  0.643225	  1.163709	  1.165533	
2.015	  0.506661	  0.497579	  0.082995	  0.289224	  0.096083	  0.100367	  0.280275	  0.359244	  0.795037	  0.698021	  0.069123	  0.220477	  0.283308	  0.638898	  1.155109	  1.156341	
2.0155	  0.500804	  0.493006	  0.082455	  0.289730	  0.095434	  0.101346	  0.278278	  0.355156	  0.795403	  0.697097	  0.068833	  0.217005	  0.280863	  0.634586	  1.146503	  1.147083	
2.016	  0.494943	  0.488387	  0.081906	  0.290287	  0.094784	  0.102362	  0.276257	  0.351063	  0.795749	  0.696100	  0.068557	  0.213545	  0.278446	  0.630290	  1.137897	  1.137759	
2.0165	  0.489079	  0.483720	  0.081350	  0.290894	  0.094133	  0.103414	  0.274213	  0.346967	  0.796077	  0.695033	  0.068296	  0.210097	  0.276059	  0.626014	  1.129292	  1.128370	
2.017	  0.483214	  0.479007	  0.080785	  0.291553	  0.093481	  0.104502	  0.272144	  0.342869	  0.796387	  0.693894	  0.068050	  0.206662	  0.273704	  0.621758	  1.120691	  1.118918	
2.0175	  0.477348	  0.474249	  0.080213	  0.292264	  0.092827	  0.105626	  0.270053	  0.338771	  0.796679	  0.692687	  0.067819	  0.203242	  0.271383	  0.617524	  1.112097	  1.109403	
2.018	  0.471483	  0.469447	  0.079633	  0.293027	  0.092171	  0.106788	  0.267938	  0.334675	  0.796954	  0.691413	  0.067602	  0.199838	  0.269098	  0.613315	  1.103512	  1.099827	
2.0185	  0.465620	  0.464603	  0.079046	  0.293842	  0.091513	  0.107987	  0.265801	  0.330581	  0.797212	  0.690073	  0.067402	  0.196450	  0.266852	  0.609132	  1.094939	  1.090191	
2.019	  0.459761	  0.459719	  0.078452	  0.294711	  0.090853	  0.109223	  0.263642	  0.326492	  0.797453	  0.688668	  0.067217	  0.193080	  0.264645	  0.604976	  1.086380	  1.080498	
2.0195	  0.453905	  0.454798	  0.077851	  0.295634	  0.090191	  0.110496	  0.261461	  0.322409	  0.797677	  0.687199	  0.067047	  0.189729	  0.262480	  0.600850	  1.077837	  1.070748	
2.02	  0.448055	  0.449840	  0.077244	  0.296612	  0.089527	  0.111807	  0.259260	  0.318334	  0.797885	  0.685669	  0.066894	  0.186397	  0.260358	  0.596754	  1.069313	  1.060944	
2.0205	  0.442213	  0.444850	  0.076631	  0.297646	  0.088860	  0.113156	  0.257038	  0.314268	  0.798076	  0.684079	  0.066758	  0.183086	  0.258281	  0.592691	  1.060810	  1.051088	
2.021	  0.436379	  0.439827	  0.076013	  0.298737	  0.088190	  0.114544	  0.254797	  0.310212	  0.798250	  0.682429	  0.066638	  0.179795	  0.256251	  0.588660	  1.052331	  1.041182	
2.0215	  0.430555	  0.434776	  0.075389	  0.299886	  0.087519	  0.115969	  0.252537	  0.306169	  0.798406	  0.680721	  0.066534	  0.176526	  0.254270	  0.584664	  1.043878	  1.031230	
2.022	  0.424744	  0.429696	  0.074762	  0.301094	  0.086845	  0.117433	  0.250261	  0.302139	  0.798545	  0.678955	  0.066448	  0.173280	  0.252338	  0.580704	  1.035454	  1.021233	
2.0225	  0.418946	  0.424591	  0.074130	  0.302363	  0.086170	  0.118935	  0.247969	  0.298125	  0.798665	  0.677132	  0.066378	  0.170057	  0.250458	  0.576780	  1.027061	  1.011196	
2.023	  0.413163	  0.419462	  0.073495	  0.303694	  0.085493	  0.120476	  0.245664	  0.294128	  0.798765	  0.675253	  0.066326	  0.166858	  0.248632	  0.572894	  1.018701	  1.001121	
2.0235	  0.407396	  0.414310	  0.072856	  0.305087	  0.084815	  0.122056	  0.243346	  0.290150	  0.798846	  0.673318	  0.066291	  0.163683	  0.246860	  0.569045	  1.010377	  0.991011	
2.024	  0.401647	  0.409138	  0.072215	  0.306544	  0.084136	  0.123674	  0.241019	  0.286191	  0.798906	  0.671327	  0.066273	  0.160532	  0.245144	  0.565233	  1.002092	  0.980871	
2.0245	  0.395918	  0.403946	  0.071572	  0.308067	  0.083457	  0.125332	  0.238683	  0.282255	  0.798945	  0.669282	  0.066273	  0.157408	  0.243487	  0.561460	  0.993848	  0.970704	
2.025	  0.390208	  0.398737	  0.070927	  0.309656	  0.082778	  0.127028	  0.236340	  0.278341	  0.798961	  0.667183	  0.066291	  0.154309	  0.241889	  0.557725	  0.985646	  0.960511	
2.0255	  0.384521	  0.393512	  0.070280	  0.311312	  0.082099	  0.128763	  0.233993	  0.274452	  0.798956	  0.665030	  0.066326	  0.151237	  0.240352	  0.554028	  0.977489	  0.950297	
2.026	  0.378856	  0.388272	  0.069633	  0.313037	  0.081420	  0.130537	  0.231642	  0.270589	  0.798929	  0.662824	  0.066379	  0.148192	  0.238878	  0.550368	  0.969378	  0.940064	
2.0265	  0.373214	  0.383020	  0.068984	  0.314831	  0.080742	  0.132350	  0.229290	  0.266753	  0.798881	  0.660566	  0.066450	  0.145174	  0.237468	  0.546746	  0.961315	  0.929814	
2.027	  0.367597	  0.377757	  0.068335	  0.316696	  0.080065	  0.134202	  0.226938	  0.262945	  0.798810	  0.658256	  0.066538	  0.142185	  0.236123	  0.543160	  0.953301	  0.919550	
2.0275	  0.362004	  0.372484	  0.067686	  0.318632	  0.079389	  0.136092	  0.224588	  0.259168	  0.798718	  0.655895	  0.066644	  0.139224	  0.234846	  0.539610	  0.945338	  0.909273	
2.028	  0.356437	  0.367203	  0.067036	  0.320640	  0.078715	  0.138021	  0.222242	  0.255421	  0.798604	  0.653484	  0.066767	  0.136291	  0.233636	  0.536094	  0.937427	  0.898987	
2.0285	  0.350896	  0.361915	  0.066387	  0.322722	  0.078043	  0.139988	  0.219900	  0.251706	  0.798466	  0.651023	  0.066909	  0.133388	  0.232496	  0.532613	  0.929569	  0.888692	
2.029	  0.345382	  0.356622	  0.065739	  0.324877	  0.077373	  0.141993	  0.217566	  0.248024	  0.798306	  0.648513	  0.067068	  0.130514	  0.231426	  0.529164	  0.921765	  0.878391	
2.0295	  0.339895	  0.351325	  0.065091	  0.327107	  0.076706	  0.144036	  0.215240	  0.244378	  0.798121	  0.645954	  0.067244	  0.127671	  0.230428	  0.525746	  0.914018	  0.868088	
2.03	  0.334435	  0.346027	  0.064444	  0.329412	  0.076042	  0.146116	  0.212924	  0.240766	  0.797910	  0.643348	  0.067438	  0.124857	  0.229503	  0.522358	  0.906328	  0.857783	
2.0305	  0.329003	  0.340729	  0.063798	  0.331793	  0.075382	  0.148234	  0.210620	  0.237191	  0.797673	  0.640696	  0.067649	  0.122074	  0.228651	  0.518997	  0.898697	  0.847481	
2.031	  0.323600	  0.335433	  0.063154	  0.334250	  0.074725	  0.150388	  0.208329	  0.233654	  0.797407	  0.638000	  0.067878	  0.119321	  0.227873	  0.515664	  0.891125	  0.837184	
2.0315	  0.318226	  0.330141	  0.062511	  0.336783	  0.074072	  0.152579	  0.206053	  0.230156	  0.797113	  0.635260	  0.068123	  0.116600	  0.227171	  0.512355	  0.883614	  0.826895	
2.032	  0.312882	  0.324855	  0.061870	  0.339393	  0.073424	  0.154806	  0.203793	  0.226697	  0.796788	  0.632478	  0.068386	  0.113910	  0.226545	  0.509068	  0.876164	  0.816620	
2.0325	  0.307569	  0.319577	  0.061231	  0.342079	  0.072781	  0.157069	  0.201550	  0.223279	  0.796431	  0.629656	  0.068666	  0.111253	  0.225996	  0.505803	  0.868776	  0.806361	
2.033	  0.302287	  0.314309	  0.060595	  0.344843	  0.072143	  0.159366	  0.199325	  0.219903	  0.796041	  0.626795	  0.068962	  0.108627	  0.225524	  0.502558	  0.861449	  0.796122	
2.0335	  0.297038	  0.309052	  0.059960	  0.347683	  0.071511	  0.161698	  0.197120	  0.216570	  0.795616	  0.623897	  0.069275	  0.106034	  0.225130	  0.499329	  0.854184	  0.785909	
2.034	  0.291821	  0.303808	  0.059329	  0.350601	  0.070886	  0.164064	  0.194937	  0.213279	  0.795155	  0.620962	  0.069605	  0.103474	  0.224814	  0.496117	  0.846981	  0.775724	
2.0345	  0.286638	  0.298579	  0.058700	  0.353595	  0.070268	  0.166464	  0.192775	  0.210033	  0.794655	  0.617992	  0.069951	  0.100948	  0.224578	  0.492920	  0.839840	  0.765571	
2.035	  0.281490	  0.293366	  0.058075	  0.356665	  0.069658	  0.168895	  0.190636	  0.206833	  0.794115	  0.614987	  0.070314	  0.098454	  0.224421	  0.489736	  0.832759	  0.755456	
2.0355	  0.276376	  0.288172	  0.057453	  0.359812	  0.069055	  0.171359	  0.188522	  0.203678	  0.793532	  0.611949	  0.070692	  0.095995	  0.224344	  0.486564	  0.825740	  0.745380	
2.036	  0.271299	  0.282996	  0.056834	  0.363034	  0.068460	  0.173854	  0.186432	  0.200569	  0.792905	  0.608877	  0.071086	  0.093569	  0.224347	  0.483404	  0.818781	  0.735348	
2.0365	  0.266259	  0.277843	  0.056220	  0.366331	  0.067874	  0.176380	  0.184368	  0.197508	  0.792232	  0.605773	  0.071496	  0.091177	  0.224430	  0.480254	  0.811883	  0.725363	
2.037	  0.261256	  0.272712	  0.055610	  0.369703	  0.067297	  0.178935	  0.182331	  0.194495	  0.791509	  0.602636	  0.071921	  0.088820	  0.224594	  0.477114	  0.805044	  0.715428	
2.0375	  0.256290	  0.267605	  0.055004	  0.373148	  0.066730	  0.181519	  0.180321	  0.191530	  0.790736	  0.599466	  0.072362	  0.086497	  0.224839	  0.473983	  0.798265	  0.705545	
2.038	  0.251363	  0.262525	  0.054404	  0.376666	  0.066173	  0.184131	  0.178339	  0.188614	  0.789909	  0.596264	  0.072817	  0.084208	  0.225165	  0.470860	  0.791546	  0.695719	
2.0385	  0.246475	  0.257473	  0.053808	  0.380256	  0.065626	  0.186771	  0.176385	  0.185748	  0.789026	  0.593030	  0.073287	  0.081955	  0.225573	  0.467743	  0.784885	  0.685951	
2.039	  0.241626	  0.252450	  0.053218	  0.383916	  0.065090	  0.189438	  0.174461	  0.182932	  0.788084	  0.589764	  0.073771	  0.079736	  0.226061	  0.464632	  0.778283	  0.676244	
2.0395	  0.236818	  0.247458	  0.052634	  0.387646	  0.064565	  0.192129	  0.172567	  0.180166	  0.787081	  0.586465	  0.074270	  0.077551	  0.226630	  0.461526	  0.771739	  0.666600	
2.04	  0.232051	  0.242498	  0.052056	  0.391444	  0.064051	  0.194846	  0.170703	  0.177450	  0.786015	  0.583133	  0.074783	  0.075402	  0.227280	  0.458424	  0.765251	  0.657022	
2.0405	  0.227326	  0.237573	  0.051484	  0.395309	  0.063550	  0.197586	  0.168870	  0.174785	  0.784883	  0.579768	  0.075310	  0.073287	  0.228011	  0.455325	  0.758820	  0.647512	
